<mxfile host="app.diagrams.net" agent="Mozilla/5.0 (Macintosh; Intel Mac OS X 10_15_7) AppleWebKit/537.36 (KHTML, like Gecko) Chrome/135.0.0.0 Safari/537.36" version="27.0.5">
  <diagram name="第 1 页" id="yc7Osr9oxbEuPRUlWCDm">
    <mxGraphModel dx="976" dy="554" grid="1" gridSize="10" guides="1" tooltips="1" connect="1" arrows="1" fold="1" page="1" pageScale="1" pageWidth="827" pageHeight="1169" math="0" shadow="0">
      <root>
        <mxCell id="0" />
        <mxCell id="1" parent="0" />
        <mxCell id="PsAZl0NUh8lT9DwRNa4e-1" value="&lt;font style=&quot;font-size: 14px;&quot;&gt;S2&lt;/font&gt;&lt;div&gt;&lt;font style=&quot;font-size: 14px;&quot;&gt;Light Low&lt;/font&gt;&lt;/div&gt;&lt;div&gt;&lt;font style=&quot;font-size: 14px;&quot;&gt;&amp;nbsp;Mode&lt;/font&gt;&lt;/div&gt;" style="ellipse;whiteSpace=wrap;html=1;aspect=fixed;" parent="1" vertex="1">
          <mxGeometry x="590" y="270" width="100" height="100" as="geometry" />
        </mxCell>
        <mxCell id="PsAZl0NUh8lT9DwRNa4e-2" value="&lt;font style=&quot;font-size: 14px;&quot;&gt;S1&lt;/font&gt;&lt;div&gt;&lt;font style=&quot;font-size: 14px;&quot;&gt;Light High Mode&lt;/font&gt;&lt;/div&gt;" style="ellipse;whiteSpace=wrap;html=1;aspect=fixed;" parent="1" vertex="1">
          <mxGeometry x="350" y="90" width="100" height="100" as="geometry" />
        </mxCell>
        <mxCell id="PsAZl0NUh8lT9DwRNa4e-3" value="&lt;font style=&quot;font-size: 14px;&quot;&gt;S3&lt;/font&gt;&lt;div&gt;&lt;span style=&quot;font-size: 14px;&quot;&gt;Turn Off Light&lt;/span&gt;&lt;/div&gt;" style="ellipse;whiteSpace=wrap;html=1;aspect=fixed;" parent="1" vertex="1">
          <mxGeometry x="60" y="270" width="100" height="100" as="geometry" />
        </mxCell>
        <mxCell id="PsAZl0NUh8lT9DwRNa4e-9" value="" style="curved=1;endArrow=classic;html=1;rounded=0;entryX=0;entryY=0;entryDx=0;entryDy=0;exitX=1;exitY=1;exitDx=0;exitDy=0;" parent="1" source="PsAZl0NUh8lT9DwRNa4e-2" target="PsAZl0NUh8lT9DwRNa4e-1" edge="1">
          <mxGeometry width="50" height="50" relative="1" as="geometry">
            <mxPoint x="440" y="290" as="sourcePoint" />
            <mxPoint x="540" y="260" as="targetPoint" />
            <Array as="points">
              <mxPoint x="510" y="190" />
              <mxPoint x="490" y="260" />
            </Array>
          </mxGeometry>
        </mxCell>
        <mxCell id="PsAZl0NUh8lT9DwRNa4e-12" value="&lt;font style=&quot;font-size: 14px;&quot;&gt;e1 Convert to Low Mode&lt;/font&gt;" style="edgeLabel;html=1;align=center;verticalAlign=middle;resizable=0;points=[];rotation=45;" parent="PsAZl0NUh8lT9DwRNa4e-9" vertex="1" connectable="0">
          <mxGeometry x="-0.0726" y="2" relative="1" as="geometry">
            <mxPoint x="34" y="-37" as="offset" />
          </mxGeometry>
        </mxCell>
        <mxCell id="dX7S4IRYwCIxldiiNjED-5" value="&lt;font style=&quot;font-size: 16px;&quot;&gt;0.5&lt;/font&gt;" style="edgeLabel;html=1;align=center;verticalAlign=middle;resizable=0;points=[];" vertex="1" connectable="0" parent="PsAZl0NUh8lT9DwRNa4e-9">
          <mxGeometry x="-0.2312" y="-1" relative="1" as="geometry">
            <mxPoint as="offset" />
          </mxGeometry>
        </mxCell>
        <mxCell id="PsAZl0NUh8lT9DwRNa4e-15" value="" style="curved=1;endArrow=classic;html=1;rounded=0;entryX=0.5;entryY=1;entryDx=0;entryDy=0;exitX=0;exitY=0.5;exitDx=0;exitDy=0;" parent="1" source="PsAZl0NUh8lT9DwRNa4e-1" target="PsAZl0NUh8lT9DwRNa4e-2" edge="1">
          <mxGeometry width="50" height="50" relative="1" as="geometry">
            <mxPoint x="410" y="350" as="sourcePoint" />
            <mxPoint x="460" y="300" as="targetPoint" />
            <Array as="points">
              <mxPoint x="530" y="290" />
              <mxPoint x="410" y="300" />
            </Array>
          </mxGeometry>
        </mxCell>
        <mxCell id="PsAZl0NUh8lT9DwRNa4e-17" value="&lt;font style=&quot;font-size: 14px;&quot;&gt;e2 Convert to High Mode&lt;/font&gt;" style="edgeLabel;html=1;align=center;verticalAlign=middle;resizable=0;points=[];rotation=30;" parent="PsAZl0NUh8lT9DwRNa4e-15" vertex="1" connectable="0">
          <mxGeometry x="0.1223" y="-4" relative="1" as="geometry">
            <mxPoint x="20" y="-34" as="offset" />
          </mxGeometry>
        </mxCell>
        <mxCell id="dX7S4IRYwCIxldiiNjED-6" value="&lt;font style=&quot;font-size: 16px;&quot;&gt;0.67&lt;/font&gt;" style="edgeLabel;html=1;align=center;verticalAlign=middle;resizable=0;points=[];" vertex="1" connectable="0" parent="PsAZl0NUh8lT9DwRNa4e-15">
          <mxGeometry x="0.4081" y="-20" relative="1" as="geometry">
            <mxPoint as="offset" />
          </mxGeometry>
        </mxCell>
        <mxCell id="PsAZl0NUh8lT9DwRNa4e-21" value="" style="curved=1;endArrow=classic;html=1;rounded=0;entryX=0;entryY=0.5;entryDx=0;entryDy=0;exitX=1;exitY=0;exitDx=0;exitDy=0;" parent="1" source="PsAZl0NUh8lT9DwRNa4e-3" target="PsAZl0NUh8lT9DwRNa4e-2" edge="1">
          <mxGeometry width="50" height="50" relative="1" as="geometry">
            <mxPoint x="200" y="250" as="sourcePoint" />
            <mxPoint x="250" y="200" as="targetPoint" />
            <Array as="points">
              <mxPoint x="230" y="230" />
              <mxPoint x="200" y="200" />
            </Array>
          </mxGeometry>
        </mxCell>
        <mxCell id="PsAZl0NUh8lT9DwRNa4e-22" value="&lt;font style=&quot;font-size: 14px;&quot;&gt;e3 Turn On the Light To High Mode&lt;/font&gt;" style="edgeLabel;html=1;align=center;verticalAlign=middle;resizable=0;points=[];rotation=-45;" parent="PsAZl0NUh8lT9DwRNa4e-21" vertex="1" connectable="0">
          <mxGeometry x="0.2383" y="-2" relative="1" as="geometry">
            <mxPoint x="-13" y="-5" as="offset" />
          </mxGeometry>
        </mxCell>
        <mxCell id="dX7S4IRYwCIxldiiNjED-1" value="&lt;font style=&quot;font-size: 16px;&quot;&gt;0.5&lt;/font&gt;" style="edgeLabel;html=1;align=center;verticalAlign=middle;resizable=0;points=[];" vertex="1" connectable="0" parent="PsAZl0NUh8lT9DwRNa4e-21">
          <mxGeometry x="0.5101" y="-4" relative="1" as="geometry">
            <mxPoint as="offset" />
          </mxGeometry>
        </mxCell>
        <mxCell id="PsAZl0NUh8lT9DwRNa4e-23" value="" style="curved=1;endArrow=classic;html=1;rounded=0;entryX=1;entryY=0.5;entryDx=0;entryDy=0;exitX=0;exitY=1;exitDx=0;exitDy=0;" parent="1" source="PsAZl0NUh8lT9DwRNa4e-2" target="PsAZl0NUh8lT9DwRNa4e-3" edge="1">
          <mxGeometry width="50" height="50" relative="1" as="geometry">
            <mxPoint x="270" y="370" as="sourcePoint" />
            <mxPoint x="320" y="320" as="targetPoint" />
            <Array as="points">
              <mxPoint x="260" y="190" />
              <mxPoint x="270" y="320" />
            </Array>
          </mxGeometry>
        </mxCell>
        <mxCell id="PsAZl0NUh8lT9DwRNa4e-24" value="&lt;font style=&quot;font-size: 14px;&quot;&gt;e4 Turn Off the Light&lt;/font&gt;" style="edgeLabel;html=1;align=center;verticalAlign=middle;resizable=0;points=[];rotation=-50;" parent="PsAZl0NUh8lT9DwRNa4e-23" vertex="1" connectable="0">
          <mxGeometry x="0.1253" y="-3" relative="1" as="geometry">
            <mxPoint x="36" y="-59" as="offset" />
          </mxGeometry>
        </mxCell>
        <mxCell id="dX7S4IRYwCIxldiiNjED-2" value="&lt;font style=&quot;font-size: 16px;&quot;&gt;0.5&lt;/font&gt;" style="edgeLabel;html=1;align=center;verticalAlign=middle;resizable=0;points=[];" vertex="1" connectable="0" parent="PsAZl0NUh8lT9DwRNa4e-23">
          <mxGeometry x="0.6186" y="-7" relative="1" as="geometry">
            <mxPoint x="14" y="-23" as="offset" />
          </mxGeometry>
        </mxCell>
        <mxCell id="PsAZl0NUh8lT9DwRNa4e-25" value="" style="curved=1;endArrow=classic;html=1;rounded=0;entryX=0;entryY=0.5;entryDx=0;entryDy=0;exitX=1;exitY=0.5;exitDx=0;exitDy=0;" parent="1" source="PsAZl0NUh8lT9DwRNa4e-3" target="PsAZl0NUh8lT9DwRNa4e-1" edge="1">
          <mxGeometry width="50" height="50" relative="1" as="geometry">
            <mxPoint x="270" y="410" as="sourcePoint" />
            <mxPoint x="320" y="360" as="targetPoint" />
            <Array as="points">
              <mxPoint x="290" y="350" />
            </Array>
          </mxGeometry>
        </mxCell>
        <mxCell id="PsAZl0NUh8lT9DwRNa4e-26" value="&lt;font style=&quot;font-size: 14px;&quot;&gt;e5 Turn On the Light To Low Mode&lt;/font&gt;" style="edgeLabel;html=1;align=center;verticalAlign=middle;resizable=0;points=[];" parent="PsAZl0NUh8lT9DwRNa4e-25" vertex="1" connectable="0">
          <mxGeometry x="-0.197" y="10" relative="1" as="geometry">
            <mxPoint x="40" y="-16" as="offset" />
          </mxGeometry>
        </mxCell>
        <mxCell id="dX7S4IRYwCIxldiiNjED-3" value="&lt;font style=&quot;font-size: 16px;&quot;&gt;0.5&lt;/font&gt;" style="edgeLabel;html=1;align=center;verticalAlign=middle;resizable=0;points=[];" vertex="1" connectable="0" parent="PsAZl0NUh8lT9DwRNa4e-25">
          <mxGeometry x="0.736" y="-1" relative="1" as="geometry">
            <mxPoint as="offset" />
          </mxGeometry>
        </mxCell>
        <mxCell id="PsAZl0NUh8lT9DwRNa4e-27" value="" style="curved=1;endArrow=classic;html=1;rounded=0;entryX=1;entryY=1;entryDx=0;entryDy=0;exitX=0;exitY=1;exitDx=0;exitDy=0;" parent="1" source="PsAZl0NUh8lT9DwRNa4e-1" target="PsAZl0NUh8lT9DwRNa4e-3" edge="1">
          <mxGeometry width="50" height="50" relative="1" as="geometry">
            <mxPoint x="310" y="470" as="sourcePoint" />
            <mxPoint x="360" y="420" as="targetPoint" />
            <Array as="points">
              <mxPoint x="400" y="350" />
              <mxPoint x="310" y="390" />
            </Array>
          </mxGeometry>
        </mxCell>
        <mxCell id="PsAZl0NUh8lT9DwRNa4e-28" value="&lt;font style=&quot;font-size: 14px;&quot;&gt;e6 Turn Off the Light&lt;/font&gt;" style="edgeLabel;html=1;align=center;verticalAlign=middle;resizable=0;points=[];" parent="PsAZl0NUh8lT9DwRNa4e-27" vertex="1" connectable="0">
          <mxGeometry x="0.0778" y="-2" relative="1" as="geometry">
            <mxPoint as="offset" />
          </mxGeometry>
        </mxCell>
        <mxCell id="dX7S4IRYwCIxldiiNjED-4" value="&lt;font style=&quot;font-size: 16px;&quot;&gt;0.33&lt;/font&gt;" style="edgeLabel;html=1;align=center;verticalAlign=middle;resizable=0;points=[];" vertex="1" connectable="0" parent="PsAZl0NUh8lT9DwRNa4e-27">
          <mxGeometry x="0.7324" y="-4" relative="1" as="geometry">
            <mxPoint y="-1" as="offset" />
          </mxGeometry>
        </mxCell>
      </root>
    </mxGraphModel>
  </diagram>
</mxfile>
